name D:\PhD\Datasets\SharingData_IBEC_VALDUCE\MO1_Comp_0001.mot
datacolumns 46
datarows 7
range 0.01000000 0.07000000
endheader
                time	         pelvis_tilt	     pelvis_rotation	           pelvis_tx	           pelvis_ty	           pelvis_tz	       hip_flexion_r	     hip_adduction_r	      hip_rotation_r	        knee_angle_r	       ankle_angle_r	    subtalar_angle_r	         mtp_angle_r	       hip_flexion_l	     hip_adduction_l	      hip_rotation_l	        knee_angle_l	       ankle_angle_l	    subtalar_angle_l	         mtp_angle_l	    lumbar_extension	      lumbar_bending	     lumbar_rotation	          arm_flex_r	           arm_add_r	           arm_rot_r	        elbow_flex_r	           pro_sup_r	        wrist_flex_r	         wrist_dev_r	          arm_flex_l	           arm_add_l	           arm_rot_l	        elbow_flex_l	           pro_sup_l	        wrist_flex_l	         wrist_dev_l	          end_eff_tx	          end_eff_ty	          end_eff_tz	             goal_tx	             goal_ty	             goal_tz	            elbow_tx	            elbow_ty	            elbow_tz	
          0.01000000	          0.00000000	          0.00000000	        330.59279568	        505.68130044	        375.56812767	          0.00000000	          0.00000000	          0.00000000	          0.00000000	          0.00000000	          0.00000000	          0.00000000	          0.00000000	          0.00000000	          0.00000000	          0.00000000	          0.00000000	          0.00000000	          0.00000000	         -2.80180264	          6.04964590	         -3.47248816	         -0.61975539	        -39.54368973	         17.24089432	         87.58927155	        107.71816254	          0.00000000	          0.00000000	          0.00000000	          0.00000000	          0.00000000	          0.00000000	          0.00000000	          0.00000000	          0.00000000	        534.39928807	        251.06765660	        505.24263906	        870.85654330	        671.60212519	       -164.88785541	        173.13531263	        316.80818412	        711.64455043	
          0.02000000	          0.00000000	          0.00000000	        330.59236775	        505.70696958	        375.57057216	          0.00000000	          0.00000000	          0.00000000	          0.00000000	          0.00000000	          0.00000000	          0.00000000	          0.00000000	          0.00000000	          0.00000000	          0.00000000	          0.00000000	          0.00000000	          0.00000000	         -2.80925179	          6.04001379	         -3.46713185	         -0.63075835	        -39.52923584	         17.22397423	         87.59096527	        107.72705841	          0.00000000	          0.00000000	          0.00000000	          0.00000000	          0.00000000	          0.00000000	          0.00000000	          0.00000000	          0.00000000	        534.31543978	        250.97989990	        505.26214399	        870.84237453	        671.59445514	       -164.89640100	        173.04464612	        316.86352019	        711.62459678	
          0.03000000	          0.00000000	          0.00000000	        330.63876366	        505.74226747	        375.57759492	          0.00000000	          0.00000000	          0.00000000	          0.00000000	          0.00000000	          0.00000000	          0.00000000	          0.00000000	          0.00000000	          0.00000000	          0.00000000	          0.00000000	          0.00000000	          0.00000000	         -2.80481768	          6.03954220	         -3.46951532	         -0.64532006	        -39.53480911	         17.20730591	         87.59852600	        107.71421051	          0.00000000	          0.00000000	          0.00000000	          0.00000000	          0.00000000	          0.00000000	          0.00000000	          0.00000000	          0.00000000	        534.25989474	        250.90087695	        505.30269181	        870.85214412	        671.61618100	       -164.88590895	        172.99183684	        316.84777547	        711.62649556	
          0.04000000	          0.00000000	          0.00000000	        330.67082747	        505.75553717	        375.56755024	          0.00000000	          0.00000000	          0.00000000	          0.00000000	          0.00000000	          0.00000000	          0.00000000	          0.00000000	          0.00000000	          0.00000000	          0.00000000	          0.00000000	          0.00000000	          0.00000000	         -2.76317024	          6.03457975	         -3.48357177	         -0.75573456	        -39.65471649	         16.98200417	         87.76382446	        107.34563446	          0.00000000	          0.00000000	          0.00000000	          0.00000000	          0.00000000	          0.00000000	          0.00000000	          0.00000000	          0.00000000	        534.22954565	        250.01972361	        505.14182413	        870.85001225	        671.62048623	       -164.88231559	        172.93354885	        316.88013811	        711.61516518	
          0.05000000	          0.00000000	          0.00000000	        330.72311255	        505.76742147	        375.56574821	          0.00000000	          0.00000000	          0.00000000	          0.00000000	          0.00000000	          0.00000000	          0.00000000	          0.00000000	          0.00000000	          0.00000000	          0.00000000	          0.00000000	          0.00000000	          0.00000000	         -2.75433993	          6.04489422	         -3.49141335	         -0.77801734	        -39.67002487	         16.97768784	         87.76802063	        107.37637329	          0.00000000	          0.00000000	          0.00000000	          0.00000000	          0.00000000	          0.00000000	          0.00000000	          0.00000000	          0.00000000	        534.18566324	        249.93453320	        505.16918124	        870.86393086	        671.59559097	       -164.90483970	        172.88367626	        316.89765722	        711.59181147	
          0.06000000	          0.00000000	          0.00000000	        330.43990647	        505.55954694	        375.51972696	          0.00000000	          0.00000000	          0.00000000	          0.00000000	          0.00000000	          0.00000000	          0.00000000	          0.00000000	          0.00000000	          0.00000000	          0.00000000	          0.00000000	          0.00000000	          0.00000000	         -2.98934007	          6.32003069	         -3.85627580	         -0.19123761	        -39.95262527	         17.45469666	         87.72467804	        107.52280426	          0.00000000	          0.00000000	          0.00000000	          0.00000000	          0.00000000	          0.00000000	          0.00000000	          0.00000000	          0.00000000	        534.14980943	        249.80499532	        505.32756535	        871.63976271	        671.83532604	       -165.53030815	        173.00378550	        316.85752807	        711.52000785	
          0.07000000	          0.00000000	          0.00000000	        330.48146765	        505.61164853	        375.53564818	          0.00000000	          0.00000000	          0.00000000	          0.00000000	          0.00000000	          0.00000000	          0.00000000	          0.00000000	          0.00000000	          0.00000000	          0.00000000	          0.00000000	          0.00000000	          0.00000000	         -3.17155623	          6.36279631	         -3.89161015	          0.02602609	        -40.01614380	         17.57383919	         87.68370056	        107.54920959	          0.00000000	          0.00000000	          0.00000000	          0.00000000	          0.00000000	          0.00000000	          0.00000000	          0.00000000	          0.00000000	        534.14950077	        249.79870322	        505.40204427	        870.98312148	        671.45014771	       -164.85081360	        172.87564922	        316.79005577	        711.65592899	
